<?xml version="1.0" encoding="UTF-8"?>
<svg width="61px" height="80px" viewBox="0 0 61 80" version="1.1" xmlns="http://www.w3.org/2000/svg" xmlns:xlink="http://www.w3.org/1999/xlink">
    <!-- Generator: Sketch 55.2 (78181) - https://sketchapp.com -->
    <title>red-gem</title>
    <desc>Created with Sketch.</desc>
    <g id="red-gem" stroke="none" stroke-width="1" fill="none" fill-rule="evenodd">
        <g id="gem_red" fill-rule="nonzero">
            <g id="Group" fill="#FF0059">
                <path d="M44.5306397,28.0096436 L55.0775147,26.1334228 L60.6848144,20.2453612 C60.5053711,19.8718263 60.2484131,19.5379639 59.8931884,19.3005372 L31.7681884,0.3948975 C31.3745117,0.131835937 30.9216309,-4.4408921e-16 30.4681397,-4.4408921e-16 L28.1243897,14.2193603 L30.4681397,20.5090331 L35.3509522,25.9381103 L44.5306397,28.0096436 Z" id="Path"></path>
                <path d="M16.40625,28.0096436 L9.9609375,21.4459228 L0.252075156,20.2453612 C0.102539063,20.5572509 6.66133815e-16,20.8947753 6.66133815e-16,21.2506103 L6.66133815e-16,58.75 C6.66133815e-16,59.1064453 0.102539063,59.4439697 0.252075156,59.7558594 L11.1328125,58.359375 L16.40625,51.9915772 L19.53125,39.2193603 L16.40625,28.0096436 Z" id="Path"></path>
                <path d="M44.5306397,51.9915772 L36.3275147,53.4771728 L30.4681397,59.4915772 L28.1243897,69.2578125 L30.4681397,80 C30.9216309,80 31.3745117,79.8693847 31.7681884,79.6063233 L59.8931884,60.7000733 C60.2484131,60.4632569 60.5053711,60.1293945 60.6848144,59.7558594 L53.9056397,53.2818603 L44.5306397,51.9915772 Z" id="Path"></path>
            </g>
            <path d="M30.4681397,20.5090331 L30.4681397,0 C30.0152588,0 29.5617675,0.131835938 29.1687012,0.3948975 L1.04370125,19.3005372 C0.688476562,19.5379639 0.431518594,19.8718263 0.252075156,20.2453612 L16.40625,28.0096436 L30.4681397,20.5090331 Z" id="Path" fill="#FF5E95"></path>
            <path d="M44.5306397,51.9915772 L60.6848144,59.7558594 C60.8343506,59.4439697 60.9368897,59.1064453 60.9368897,58.75 L60.9368897,21.2506103 C60.9368897,20.8947753 60.8343506,20.5572509 60.6848144,20.2453613 L44.5306397,28.0096436 L44.5306397,51.9915772 Z" id="Path" fill="#E50048"></path>
            <path d="M16.40625,51.9915772 L0.252075156,59.7558594 C0.431518594,60.1293945 0.688476562,60.4632569 1.04370125,60.7006836 L29.1687012,79.6063233 C29.562378,79.8693847 30.0152588,80 30.4681397,80 L30.4681397,59.4915772 L16.40625,51.9915772 Z" id="Path" fill="#FF5E95"></path>
            <polygon id="Path" fill="#FFA2C3" points="44.5306397 28.0004883 44.5306397 52.000122 30.4681397 59.500122 16.40625 52.000122 16.40625 28.0004883 30.4681397 20.5004883"></polygon>
            <polygon id="Path" fill="#FF5E95" points="44.5306397 28.0004883 44.5306397 52.000122 30.4681397 59.500122 30.4681397 20.5004883"></polygon>
        </g>
    </g>
</svg>