<?xml version="1.0" encoding="UTF-8"?>
<svg width="57px" height="80px" viewBox="0 0 57 80" version="1.1" xmlns="http://www.w3.org/2000/svg" xmlns:xlink="http://www.w3.org/1999/xlink">
    <!-- Generator: Sketch 55.2 (78181) - https://sketchapp.com -->
    <title>purple-gem</title>
    <desc>Created with Sketch.</desc>
    <g id="purple-gem" stroke="none" stroke-width="1" fill="none" fill-rule="evenodd">
        <g id="gem_purp" fill-rule="nonzero">
            <path d="M56.0714063,15.5090625 L50.5340625,13.1157812 L42.0089063,23.4375 L42.0089063,56.5625 L51.473125,67.2734375 L56.0714062,64.4910937 C56.188125,64.2095312 56.25,63.9051562 56.25,63.5939062 L56.25,16.40625 C56.25,16.095 56.188125,15.790625 56.0714062,15.5090625 L56.0714063,15.5090625 Z" id="Path" fill="#6B77E8"></path>
            <path d="M5.25875,12.92625 L0.17859375,15.5090625 C0.061875,15.790625 0,16.095 0,16.40625 L0,63.59375 C0,63.905 0.061875,64.209375 0.17859375,64.4909375 L4.776875,67.2732812 L14.2410937,57.6610938 L14.2410937,22.998125 L5.25875,12.92625 Z" id="Path" fill="#979FEF"></path>
            <path d="M14.2535938,60.619375 L9.5534375,60.6067187 L0.1784375,64.4907812 C0.29515625,64.7723438 0.466875,65.0309375 0.6865625,65.250625 L14.7490625,79.313125 C14.96875,79.5328125 15.2340625,79.7110938 15.5154688,79.8278125 L22.1875,74.0625 L14.2535938,60.619375 Z" id="Path" fill="#6B77E8"></path>
            <path d="M46.6964062,60.606875 L40,61.0954687 L34.1484375,75.223125 L40.75,79.84375 C41.0315625,79.7270312 41.2810937,79.533125 41.5009375,79.3132812 L55.5634375,65.2507812 C55.783125,65.0310937 55.9548437,64.7723437 56.0715625,64.4909375 L46.6964062,60.606875 Z" id="Path" fill="#615AD3"></path>
            <path d="M40.75,79.84375 C40.46875,79.9845313 40.171875,80 39.84375,80 L16.40625,80 C16.078125,80 15.796875,79.9689063 15.515625,79.828125 L19.4064062,70.4373437 L22.6407812,65.7498437 L34.78125,65.7498437 L36.84375,70.4373437 L40.75,79.84375 Z" id="Path" fill="#979FEF"></path>
            <path d="M36.84375,70.4373437 L40.75,79.84375 C40.46875,79.9845313 40.171875,80 39.84375,80 L28.125,80 L28.125,65.7498437 L34.78125,65.7498437 L36.84375,70.4373437 Z" id="Path" fill="#6B77E8"></path>
            <path d="M55.5632813,14.7492187 L41.5007813,0.68671875 C41.2810937,0.466875 41.0159375,0.27296875 40.734375,0.15625 L34.3328125,4.33171875 L37.1954688,14.5796875 L46.6965625,19.3932812 L56.0715625,15.5092187 C55.9546875,15.2275 55.783125,14.9689062 55.5632813,14.7492187 L55.5632813,14.7492187 Z" id="Path" fill="#615AD3"></path>
            <path d="M15.515625,0.1875 C15.2340625,0.30421875 14.9689063,0.466875 14.7492188,0.68671875 L0.68671875,14.7492187 C0.46703125,14.9689063 0.2953125,15.2276563 0.17859375,15.5090625 L9.55359375,19.393125 L14.2410938,19.393125 L22.1017187,4.77671875 L15.515625,0.1875 Z" id="Path" fill="#6B77E8"></path>
            <path d="M40.734375,0.15625 L36.84375,9.56234375 L34.78125,14.2498437 L22.125,14.2498437 L19.4064062,9.56234375 L15.515625,0.1875 C15.796875,0.04703125 16.078125,-7.10542736e-15 16.40625,-7.10542736e-15 L39.84375,-7.10542736e-15 C40.171875,-7.10542736e-15 40.453125,0.01578125 40.734375,0.15625 Z" id="Path" fill="#979FEF"></path>
            <path d="M34.78125,14.2498437 L28.125,14.2498437 L28.125,0 L39.84375,0 C40.171875,0 40.453125,0.01578125 40.734375,0.15625 L36.84375,9.56234375 L34.78125,14.2498437 Z" id="Path" fill="#6B77E8"></path>
            <path d="M46.875,20.2967188 L46.875,59.703125 C46.875,60.03125 46.828125,60.3125 46.6876562,60.59375 C46.59375,60.875 46.4064062,61.15625 46.171875,61.3435937 L37.5939062,69.921875 C37.40625,70.15625 37.125,70.3439063 36.84375,70.4375 C36.5625,70.578125 36.28125,70.625 35.953125,70.625 L20.2970312,70.625 C19.9689063,70.625 19.6876562,70.578125 19.4064063,70.4373437 C19.1251562,70.34375 18.8439063,70.1560937 18.65625,69.9217187 L10.0782813,61.3434375 C9.84375,61.1560937 9.65625,60.8748437 9.5625,60.5935937 C9.42203125,60.3123437 9.37515625,60.0310937 9.37515625,59.7029688 L9.37515625,20.2967188 C9.37515625,19.9689062 9.42203125,19.6876563 9.5625,19.4064062 C9.65640625,19.1248437 9.84375,18.8435937 10.0782813,18.65625 L18.65625,10.0779688 C18.8439063,9.84359375 19.1251563,9.65625 19.4064063,9.56234375 C19.6875,9.421875 19.96875,9.375 20.2970312,9.375 L35.953125,9.375 C36.28125,9.375 36.5625,9.421875 36.84375,9.56234375 C37.125,9.65625 37.40625,9.84359375 37.5939062,10.0779688 L46.171875,18.65625 C46.4064062,18.8435938 46.5939062,19.1248438 46.6876562,19.4064063 C46.828125,19.6875 46.875,19.96875 46.875,20.2967188 Z" id="Path" fill="#B9B6EC"></path>
            <path d="M46.875,20.2967188 L46.875,59.703125 C46.875,60.03125 46.828125,60.3125 46.6876562,60.59375 C46.59375,60.875 46.4064062,61.15625 46.171875,61.3435937 L37.5939062,69.921875 C37.40625,70.15625 37.125,70.3439063 36.84375,70.4375 C36.5625,70.578125 36.28125,70.625 35.953125,70.625 L28.125,70.625 L28.125,9.375 L35.953125,9.375 C36.28125,9.375 36.5625,9.421875 36.84375,9.56234375 C37.125,9.65625 37.40625,9.84359375 37.5939062,10.0779688 L46.171875,18.65625 C46.4064062,18.8435938 46.5939062,19.1248438 46.6876562,19.4064063 C46.828125,19.6875 46.875,19.96875 46.875,20.2967188 Z" id="Path" fill="#979FEF"></path>
        </g>
    </g>
</svg>