<?xml version="1.0" encoding="UTF-8"?>
<svg width="70px" height="80px" viewBox="0 0 70 80" version="1.1" xmlns="http://www.w3.org/2000/svg" xmlns:xlink="http://www.w3.org/1999/xlink">
    <!-- Generator: Sketch 55.2 (78181) - https://sketchapp.com -->
    <title>blue-gem</title>
    <desc>Created with Sketch.</desc>
    <g id="blue-gem" stroke="none" stroke-width="1" fill="none" fill-rule="evenodd">
        <g id="gem_blue" fill-rule="nonzero">
            <polygon id="Path" fill="#82D2FF" points="34.6875 0 0.04640625 20 0.04640625 60 34.6875 80 69.3285937 60 69.3285937 20"></polygon>
            <polygon id="Path" fill="#08B7FC" points="34.6875 40 34.6875 0 0.04640625 20"></polygon>
            <polygon id="Path" fill="#006DFF" points="0.04640625 20 0.04640625 60 34.6875 40"></polygon>
            <polygon id="Path" fill="#08B7FC" points="69.3285937 20 69.3285937 20 34.6875 40 34.6875 40 69.3285937 60 69.3285937 60"></polygon>
            <polygon id="Path" fill="#0050C0" points="34.6875 40 0.04640625 60 34.6875 80"></polygon>
            <polygon id="Path" fill="#006DFF" points="34.6875 80 69.3285937 60 34.6875 40"></polygon>
            <polygon id="Path" fill="#82D2FF" points="54.2376563 51.2871875 54.2376563 28.7128125 34.6875 17.4254687 15.1373437 28.7128125 15.1373437 51.2871875 34.6875 62.5745312"></polygon>
            <polygon id="Path" fill="#55CBFF" points="54.2376562 51.2871875 54.2376562 28.7128125 34.6875 17.4254687 34.6875 62.5745312"></polygon>
        </g>
    </g>
</svg>